# xmcd CD database file
#
# Track frame offsets:
#	150
#	16727
#	34448
#	54425
#	71765
#	88366
#	105995
#	123508
#	142757
#	157503
#	170603
#	188225
#	200684
#	222027
#	235419
#	253926
#	271895
#
# Disc length: 3857 seconds
#
# Revision: 0
# Processed by: cddbd v1.5.2PL0 Copyright (c) Steve Scherf et al.
# Submitted via: CDex 1.51
#
DISCID=ee0f0f11
DTITLE=Sir Bourbon Dixeland Band - Absolute Dixie
DYEAR=1900
DGENRE=Jazz
TTITLE0=Bye And Bye
TTITLE1=You always hurt the one you love
TTITLE2=Working man blues
TTITLE3=Drömmen om Elin
TTITLE4=I've got a feeling I', falling
TTITLE5=Battle hymn of the republic
TTITLE6=Hestitating blues
TTITLE7=You're driving me crazy
TTITLE8=Way down yonder in New Orleans
TTITLE9=Gee baby Ain't it good to yoy
TTITLE10='s wonderful
TTITLE11=Cést magnifique
TTITLE12=Apex blues
TTITLE13=Potatoe head blues
TTITLE14=Someday you'll be sorry
TTITLE15=Melancholy
TTITLE16=Wolverine blues
EXTD=
EXTT0=
EXTT1=
EXTT2=
EXTT3=
EXTT4=
EXTT5=
EXTT6=
EXTT7=
EXTT8=
EXTT9=
EXTT10=
EXTT11=
EXTT12=
EXTT13=
EXTT14=
EXTT15=
EXTT16=
PLAYORDER=
